<?xml version="1.0" encoding="UTF-8"?>
<!-- Generated by Pixelmator Pro 4.0 -->
<svg width="203" height="208" viewBox="0 0 203 208" xmlns="http://www.w3.org/2000/svg">
    <path id="Trac-copie-3" fill="#ffffff" stroke="none" d="M 164.122681 0.752548 L 39.715256 0.752548 C 18.277046 0.752548 0.837977 18.196701 0.837977 39.629868 L 0.837977 122.568176 C 0.837977 144.001266 18.277046 161.445496 39.715256 161.445496 L 72.911575 161.445496 L 69.137741 191.636078 L 52.158028 191.636078 C 47.865322 191.636078 44.382557 195.118942 44.382557 199.411545 C 44.382557 203.7043 47.865322 207.187012 52.158028 207.187012 L 151.679901 207.187012 C 155.972626 207.187012 159.455368 203.7043 159.455368 199.411545 C 159.455368 195.118942 155.972626 191.636078 151.679901 191.636078 L 134.700195 191.636078 L 130.926361 161.445496 L 164.122681 161.445496 C 185.560883 161.445496 203 144.001266 203 122.568176 L 203 39.629868 C 203 18.196701 185.560883 0.752548 164.122681 0.752548 Z M 119.030304 191.636078 L 84.807632 191.636078 L 88.581459 161.445496 L 115.25647 161.445496 L 119.030304 191.636078 Z M 187.449066 122.568176 C 187.449066 135.42601 176.985596 145.894562 164.122681 145.894562 L 39.715256 145.894562 C 26.852329 145.894562 16.388863 135.42601 16.388863 122.568176 L 16.388863 39.629868 C 16.388863 26.772034 26.852329 16.303482 39.715256 16.303482 L 164.122681 16.303482 C 176.985596 16.303482 187.449066 26.772034 187.449066 39.629868 L 187.449066 122.568176 Z M 163.577866 68.234848 C 161.377731 68.970093 157.534927 70.553894 156.11879 71.218292 C 160.852524 71.593552 164.838959 72.656006 165.617264 74.573898 C 166.256378 76.146988 163.69429 80.213768 161.840286 80.652878 C 141.483475 85.478378 122.706696 47.057938 101.904411 68.873886 C 86.278816 52.880051 73.102669 69.182709 57.949123 77.178375 L 57.949123 50.746353 L 60.391609 47.538208 C 63.613037 53.343842 69.732552 57.327179 76.830948 57.327179 C 87.238731 57.327179 95.702644 48.863235 95.702644 38.455429 C 95.702644 28.047699 87.238731 19.573654 76.830948 19.573654 C 66.423164 19.573654 57.959251 28.047699 57.959251 38.455429 C 57.959251 40.498688 58.368652 42.430481 58.971676 44.274414 L 54.840961 49.693405 L 54.840961 78.70401 C 51.04055 80.347252 47.102837 81.319183 42.960094 81.013557 C 40.833992 80.856682 37.393623 76.504471 38.207367 74.656128 C 39.119823 72.58197 42.951866 71.594162 47.707127 71.243652 C 46.333385 70.533691 42.464638 68.874573 40.270195 68.22847 C 38.148521 67.603317 33.321758 70.981003 32.344128 73.214706 C 27.259832 84.832344 39.155254 93.489914 54.840961 97.540215 L 54.840961 122.377052 C 51.312645 123.121185 48.604397 126.115425 48.604397 129.857666 C 48.604397 134.15036 52.097282 137.653336 56.395046 137.653336 C 60.692814 137.653336 64.185699 134.15036 64.185699 129.857666 C 64.185699 126.115425 61.47744 123.121185 57.949123 122.377052 L 57.949123 98.269852 C 74.029678 101.695 93.037422 100.433235 102.031601 92.677437 C 118.93792 108.32518 182.019913 97.599747 171.514679 73.245682 C 170.549713 71.008881 165.688782 67.529892 163.577866 68.234848 Z M 76.830948 22.691879 C 85.522667 22.691879 92.594482 29.758667 92.594482 38.455429 C 92.594482 47.142075 85.522667 54.208862 76.830948 54.208862 C 68.139236 54.208862 61.067406 47.142075 61.067406 38.455429 C 61.067406 29.758667 68.139236 22.691879 76.830948 22.691879 Z M 61.077534 129.857666 C 61.077534 132.439362 58.976746 134.535095 56.395046 134.535095 C 53.813351 134.535095 51.712551 132.439362 51.712551 129.857666 C 51.712551 127.275978 53.813351 125.180244 56.395046 125.180244 C 58.976746 125.180244 61.077534 127.275978 61.077534 129.857666 Z"/>
</svg>
